<?xml version="1.0" standalone="no"?>
<!DOCTYPE svg PUBLIC "-//W3C//DTD SVG 20010904//EN"
 "http://www.w3.org/TR/2001/REC-SVG-20010904/DTD/svg10.dtd">
<svg version="1.0" xmlns="http://www.w3.org/2000/svg"
 width="300.000000pt" height="272.000000pt" viewBox="0 0 300.000000 272.000000"
 preserveAspectRatio="xMidYMid meet">
<metadata>
Created by potrace 1.10, written by Peter Selinger 2001-2011
</metadata>
<g transform="translate(0.000000,272.000000) scale(0.100000,-0.100000)"
fill="#000000" stroke="none">
<path d="M597 2300 c-16 -13 -27 -31 -27 -46 0 -14 24 -98 54 -187 98 -290
120 -464 113 -892 -4 -343 1 -316 -138 -669 -55 -137 -99 -255 -99 -261 0 -7
9 -24 21 -39 25 -31 70 -35 97 -8 19 19 151 339 204 492 50 148 58 223 58 549
-1 311 -11 448 -49 621 -26 120 -119 406 -140 430 -26 30 -63 34 -94 10z"/>
<path d="M2530 2307 c-32 -16 -86 -160 -140 -372 -56 -217 -70 -364 -70 -710
1 -321 8 -382 60 -535 42 -122 177 -458 196 -488 29 -45 124 -17 124 38 0 11
-45 133 -99 272 -144 368 -136 323 -136 718 0 224 4 368 13 434 18 132 62 306
111 444 49 135 51 163 15 191 -31 24 -40 25 -74 8z"/>
<path d="M1550 1980 c-16 -16 -20 -33 -20 -91 0 -92 -16 -144 -54 -176 -26
-22 -37 -25 -84 -21 -51 5 -57 8 -125 76 -64 63 -77 72 -109 72 -27 0 -41 -6
-52 -22 -30 -42 -20 -66 60 -148 99 -102 148 -124 254 -117 41 2 83 8 93 12
16 7 17 -4 17 -140 0 -233 -20 -275 -131 -275 l-59 0 -74 70 c-59 56 -80 70
-105 70 -38 0 -71 -31 -71 -66 0 -34 126 -165 188 -195 48 -24 145 -31 215
-16 l37 8 0 -148 c0 -226 -22 -273 -125 -273 l-56 0 -79 75 c-63 60 -85 75
-109 75 -39 0 -71 -31 -71 -68 0 -40 157 -194 215 -212 42 -12 177 -10 208 4
15 7 17 1 17 -58 0 -79 19 -106 74 -106 49 0 66 28 66 108 0 57 2 63 18 56 9
-4 52 -9 95 -12 109 -6 150 12 248 107 88 85 100 118 56 159 -41 38 -67 29
-151 -53 l-76 -75 -58 0 c-109 1 -132 47 -132 272 l0 150 23 -6 c62 -17 136
-18 192 -1 50 14 70 28 142 99 62 61 83 88 83 108 0 39 -31 71 -68 71 -26 0
-46 -13 -106 -71 l-74 -72 -59 0 c-111 0 -133 44 -133 273 0 138 1 149 18 142
36 -15 152 -18 199 -5 39 11 65 31 136 100 94 93 106 121 67 160 -39 39 -75
27 -157 -52 l-75 -73 -58 0 c-47 0 -63 4 -83 23 -31 29 -47 90 -47 176 0 76
-20 106 -70 106 -17 0 -39 -9 -50 -20z"/>
</g>
</svg>
