<?xml version="1.0" standalone="no"?>
<!DOCTYPE svg PUBLIC "-//W3C//DTD SVG 20010904//EN"
 "http://www.w3.org/TR/2001/REC-SVG-20010904/DTD/svg10.dtd">
<svg version="1.0" xmlns="http://www.w3.org/2000/svg"
 width="300.000000pt" height="283.000000pt" viewBox="0 0 300.000000 283.000000"
 preserveAspectRatio="xMidYMid meet">
<metadata>
Created by potrace 1.10, written by Peter Selinger 2001-2011
</metadata>
<g transform="translate(0.000000,283.000000) scale(0.100000,-0.100000)"
fill="#000000" stroke="none">
<path d="M1623 2290 c-26 -11 -36 -29 -54 -97 -12 -51 -12 -54 11 -78 28 -30
70 -33 93 -7 16 17 47 102 47 128 0 18 -33 52 -55 57 -11 3 -30 2 -42 -3z"/>
<path d="M1016 2229 c-17 -13 -26 -30 -26 -48 0 -33 78 -155 103 -159 35 -7
64 8 76 37 11 25 9 36 -19 90 -51 102 -82 121 -134 80z"/>
<path d="M2470 2099 c-195 -25 -470 -101 -628 -175 -70 -32 -76 -33 -125 -22
-30 6 -90 8 -142 5 -240 -15 -437 -158 -527 -382 -32 -78 -33 -85 -34 -235 -1
-95 -6 -167 -13 -185 -40 -97 -63 -215 -68 -347 -6 -154 5 -247 44 -373 48
-151 81 -188 142 -154 37 21 37 57 2 148 -82 212 -76 496 14 697 26 57 26 62
15 144 -18 140 11 269 84 369 98 132 273 204 444 180 37 -5 75 -12 84 -15 10
-3 62 15 115 39 183 84 393 142 612 171 63 8 120 21 127 28 7 7 16 25 19 40 5
21 1 33 -19 52 -27 28 -38 29 -146 15z"/>
<path d="M655 1858 c-27 -15 -35 -28 -35 -59 0 -31 28 -58 97 -93 61 -30 94
-33 115 -8 45 52 26 88 -72 137 -77 39 -77 39 -105 23z"/>
<path d="M661 1249 c-30 -10 -63 -26 -73 -36 -24 -22 -23 -68 3 -94 25 -25 53
-23 141 10 43 17 59 28 66 49 11 33 0 67 -27 81 -27 15 -46 13 -110 -10z"/>
<path d="M1782 1230 c-43 -18 -47 -50 -18 -152 40 -138 52 -267 38 -392 -11
-102 -56 -265 -94 -339 -38 -75 -2 -140 66 -123 22 5 34 20 58 73 16 37 34 78
39 91 9 23 11 22 68 -36 108 -109 179 -135 217 -77 25 38 11 69 -50 110 -58
38 -112 98 -151 166 -23 41 -23 48 -18 183 8 213 -36 440 -94 485 -29 23 -29
23 -61 11z"/>
</g>
</svg>
