<?xml version="1.0" standalone="no"?>
<!DOCTYPE svg PUBLIC "-//W3C//DTD SVG 20010904//EN"
 "http://www.w3.org/TR/2001/REC-SVG-20010904/DTD/svg10.dtd">
<svg version="1.0" xmlns="http://www.w3.org/2000/svg"
 width="300.000000pt" height="236.000000pt" viewBox="0 0 300.000000 236.000000"
 preserveAspectRatio="xMidYMid meet">
<metadata>
Created by potrace 1.10, written by Peter Selinger 2001-2011
</metadata>
<g transform="translate(0.000000,236.000000) scale(0.100000,-0.100000)"
fill="#000000" stroke="none">
<path d="M1000 1780 c-17 -17 -20 -33 -20 -103 0 -173 34 -265 134 -359 l62
-59 -12 -81 c-8 -45 -15 -85 -17 -91 -1 -5 -45 -20 -97 -33 -52 -13 -129 -37
-170 -53 -41 -17 -97 -33 -125 -37 -243 -33 -406 -223 -405 -473 1 -153 48
-233 117 -199 44 22 48 37 33 130 -10 64 -10 96 -1 136 32 151 132 244 283
261 44 6 99 21 138 39 65 30 194 65 281 77 26 3 54 14 62 23 9 10 24 63 33
120 15 87 20 102 33 96 28 -13 225 -16 266 -5 21 6 40 9 42 8 1 -2 9 -45 17
-96 20 -119 32 -138 93 -146 96 -13 214 -45 280 -76 42 -19 95 -34 140 -39
114 -14 196 -66 246 -158 42 -77 52 -141 37 -240 -15 -93 -11 -108 33 -130 43
-21 78 2 100 63 13 39 17 74 14 160 -3 94 -7 119 -30 169 -75 162 -202 257
-376 281 -29 4 -86 21 -125 37 -39 16 -114 40 -166 52 l-95 23 -16 91 -16 91
64 60 c92 86 121 154 132 302 5 63 5 124 0 136 -17 46 -82 57 -116 21 -17 -19
-22 -42 -28 -118 -10 -144 -19 -165 -98 -242 -97 -94 -130 -108 -252 -108
-122 0 -153 13 -251 107 -80 77 -89 99 -100 248 -5 72 -10 95 -27 113 -26 28
-70 29 -97 2z"/>
<path d="M1060 683 c-52 -18 -68 -86 -28 -123 12 -11 29 -20 39 -20 56 0 137
-60 164 -122 37 -86 90 -113 135 -68 46 46 14 144 -77 232 -66 64 -187 116
-233 101z"/>
<path d="M1819 676 c-167 -44 -317 -251 -237 -326 47 -44 90 -21 137 73 29 56
74 91 149 113 56 16 72 35 72 82 0 54 -49 77 -121 58z"/>
</g>
</svg>
