<?xml version="1.0" standalone="no"?>
<!DOCTYPE svg PUBLIC "-//W3C//DTD SVG 20010904//EN"
 "http://www.w3.org/TR/2001/REC-SVG-20010904/DTD/svg10.dtd">
<svg version="1.0" xmlns="http://www.w3.org/2000/svg"
 width="268.000000pt" height="264.000000pt" viewBox="0 0 268.000000 264.000000"
 preserveAspectRatio="xMidYMid meet">
<metadata>
Created by potrace 1.10, written by Peter Selinger 2001-2011
</metadata>
<g transform="translate(0.000000,264.000000) scale(0.050000,-0.050000)"
fill="#000000" stroke="none">
<path d="M2491 4715 c-40 -36 -61 -92 -104 -286 l-53 -241 -501 -155 c-276
-85 -517 -169 -537 -187 -33 -30 -36 -83 -36 -724 1 -834 -5 -814 295 -1055
45 -36 48 -62 106 -907 33 -478 69 -890 79 -915 42 -98 191 -108 250 -17 29
44 -17 947 -81 1607 l-12 125 452 0 c515 0 546 7 679 163 l72 84 72 -84 c133
-156 164 -163 679 -163 l452 0 -12 -125 c-64 -660 -110 -1563 -81 -1607 59
-91 208 -81 250 17 10 25 46 437 79 915 58 845 61 871 106 907 299 241 294
222 295 1046 0 621 -3 686 -35 725 -25 29 -181 86 -537 196 l-502 154 -53 241
c-79 355 -27 331 -713 331 -550 0 -558 -1 -609 -45z m1063 -485 c27 -122 64
-236 83 -255 28 -29 466 -176 913 -306 l100 -29 -10 -599 -10 -599 -88 -76
c-147 -127 -135 -125 -606 -125 -496 -1 -495 -1 -606 152 -115 159 -168 207
-230 207 -62 0 -115 -48 -230 -207 -111 -153 -110 -153 -606 -152 -471 0 -459
-2 -606 125 l-88 76 -10 599 -10 599 100 29 c414 121 882 275 910 301 20 18
52 116 79 235 24 113 48 216 52 230 6 20 99 25 411 20 l404 -5 48 -220z"/>
<path d="M1933 2679 c-126 -100 -32 -259 153 -259 192 0 287 145 168 257 -65
60 -246 61 -321 2z"/>
<path d="M3943 2674 c-110 -118 -19 -254 171 -254 185 0 279 159 153 259 -78
61 -264 58 -324 -5z"/>
<path d="M3001 1521 c-22 -22 -57 -75 -79 -118 -47 -92 -70 -103 -214 -103
-78 0 -116 10 -137 35 -159 192 -207 216 -296 145 -96 -75 -79 -169 58 -321
175 -194 544 -222 722 -55 l45 43 45 -43 c229 -214 667 -110 825 197 90 173
-125 301 -244 146 -108 -140 -119 -147 -234 -147 -144 0 -167 11 -214 103 -56
111 -109 157 -178 157 -33 0 -78 -18 -99 -39z"/>
<path d="M3001 781 c-22 -22 -57 -75 -79 -118 -47 -92 -70 -103 -214 -103 -78
0 -116 10 -137 35 -161 194 -206 216 -298 144 -97 -76 -53 -224 110 -373 156
-144 519 -145 672 -2 l45 43 45 -43 c229 -214 667 -110 825 197 90 173 -125
301 -244 146 -108 -140 -119 -147 -234 -147 -144 0 -167 11 -214 103 -79 156
-191 204 -277 118z"/>
</g>
</svg>
