<?xml version="1.0" standalone="no"?>
<!DOCTYPE svg PUBLIC "-//W3C//DTD SVG 20010904//EN"
 "http://www.w3.org/TR/2001/REC-SVG-20010904/DTD/svg10.dtd">
<svg version="1.0" xmlns="http://www.w3.org/2000/svg"
 width="285.000000pt" height="278.000000pt" viewBox="0 0 285.000000 278.000000"
 preserveAspectRatio="xMidYMid meet">
<metadata>
Created by potrace 1.10, written by Peter Selinger 2001-2011
</metadata>
<g transform="translate(0.000000,278.000000) scale(0.050000,-0.050000)"
fill="#000000" stroke="none">
<path d="M2226 4811 c-58 -42 -158 -308 -196 -522 -69 -400 -24 -782 261
-2200 130 -648 131 -674 40 -865 -182 -379 -177 -668 16 -873 l83 -89 1120 -6
c1114 -6 1120 -6 1200 37 235 127 315 408 181 637 -85 145 -177 185 -583 253
-482 80 -643 170 -761 427 -82 180 -80 220 83 1586 85 707 148 1308 141 1336
-24 97 -172 124 -243 45 -60 -66 -357 -2593 -330 -2804 64 -485 380 -768 965
-865 158 -26 317 -52 353 -59 142 -24 191 -164 92 -263 l-51 -51 -1024 9
-1023 9 -30 59 c-51 100 -33 239 56 438 160 357 161 318 -44 1344 -257 1283
-288 1697 -156 2056 37 99 71 203 77 231 22 107 -134 196 -227 130z"/>
<path d="M1329 4711 c-91 -91 -64 -183 81 -278 138 -92 270 -46 270 94 0 152
-252 283 -351 184z"/>
<path d="M1049 3591 c-119 -120 -25 -251 181 -251 113 0 139 7 181 49 119 120
25 251 -181 251 -113 0 -139 -7 -181 -49z"/>
<path d="M1584 2661 c-135 -98 -160 -187 -75 -272 130 -129 407 85 322 249
-52 101 -129 108 -247 23z"/>
</g>
</svg>
